<?xml version="1.0" standalone="no"?>
<!DOCTYPE svg PUBLIC "-//W3C//DTD SVG 20010904//EN"
 "http://www.w3.org/TR/2001/REC-SVG-20010904/DTD/svg10.dtd">
<svg version="1.0" xmlns="http://www.w3.org/2000/svg"
 width="300.000000pt" height="300.000000pt" viewBox="0 0 300.000000 300.000000"
 preserveAspectRatio="xMidYMid meet">
<metadata>
Created by potrace 1.11, written by Peter Selinger 2001-2013
</metadata>
<g transform="translate(0.000000,300.000000) scale(0.100000,-0.100000)"
fill="#000000" stroke="none">
<path d="M1871 2814 c-28 -6 -53 -9 -56 -6 -2 3 -58 -49 -124 -114 -130 -130
-170 -166 -213 -192 -15 -9 -28 -20 -28 -24 0 -13 -41 -3 -87 21 -22 12 -54
24 -69 27 -16 3 -36 7 -45 10 -9 2 -29 -1 -45 -7 -16 -6 -48 -12 -71 -14 -58
-4 -81 -13 -93 -36 -6 -10 -17 -19 -24 -19 -7 0 -34 -9 -60 -20 -25 -12 -59
-23 -74 -25 -47 -5 -184 -85 -147 -85 5 0 -2 -8 -13 -19 -12 -10 -19 -21 -15
-25 3 -3 1 -6 -5 -6 -7 0 -12 -7 -12 -15 0 -8 -4 -15 -10 -15 -5 0 -10 -5 -10
-12 0 -6 -12 -26 -26 -45 -33 -44 -64 -114 -65 -150 -2 -50 -21 -74 -89 -108
-149 -75 -168 -86 -188 -108 -23 -24 -29 -57 -17 -94 5 -15 1 -27 -14 -42 -47
-47 -15 -113 64 -132 28 -6 59 -16 70 -20 11 -5 36 -11 55 -13 39 -4 119 -30
165 -53 70 -35 199 -151 274 -243 20 -25 39 -46 44 -48 4 -2 7 -8 7 -13 0 -6
18 -37 40 -70 22 -33 40 -62 40 -65 0 -2 11 -22 24 -43 14 -21 22 -42 19 -45
-4 -3 -1 -6 5 -6 7 0 12 -5 12 -11 0 -6 13 -30 30 -54 17 -24 30 -48 30 -54 0
-12 136 -148 187 -187 51 -38 111 -62 181 -70 34 -3 65 -10 68 -15 14 -23 -89
-169 -120 -169 -6 0 -17 -9 -24 -20 -7 -12 -17 -18 -22 -15 -5 3 -11 1 -15 -5
-3 -5 -19 -10 -36 -10 -23 0 -29 -4 -29 -22 -1 -26 -26 -65 -36 -55 -3 3 -24
-6 -46 -19 -22 -14 -54 -27 -71 -28 -18 -1 -35 -10 -41 -22 -6 -10 -15 -22
-20 -25 -14 -11 8 -16 51 -11 23 2 51 13 62 23 11 10 24 19 29 19 5 0 21 9 34
20 14 10 28 16 32 13 3 -3 6 0 6 8 0 10 3 10 8 3 8 -14 85 13 77 26 -3 5 21
21 52 36 32 16 60 31 63 35 3 3 15 11 27 17 12 7 23 21 25 32 2 12 6 21 11 20
8 0 72 69 72 79 1 14 49 100 81 144 41 57 61 57 80 2 19 -57 38 -67 110 -61
57 5 63 4 87 -22 62 -64 139 -163 192 -247 31 -50 85 -132 118 -183 l61 -92
84 0 c82 0 84 1 117 35 l34 34 -61 118 c-33 65 -98 170 -143 233 -78 109 -171
266 -180 307 -3 10 -12 44 -22 76 -12 42 -14 60 -5 65 6 4 15 20 21 35 6 15
21 31 33 36 35 14 63 23 63 19 0 -6 101 69 127 94 15 16 31 28 35 28 11 1 93
105 93 118 0 6 6 17 13 24 34 36 109 282 130 423 1 11 6 26 10 33 5 6 4 12 -2
12 -12 0 -16 -12 -37 -140 -3 -19 -21 -83 -40 -141 -30 -93 -41 -114 -84 -159
-28 -29 -50 -50 -50 -46 0 4 -13 -2 -29 -13 -55 -39 -63 -26 -45 69 7 37 11
91 9 121 -4 51 -40 178 -54 189 -3 3 -12 17 -19 31 -8 14 -24 38 -38 54 -13
15 -26 36 -29 46 -4 11 -10 19 -14 19 -5 0 -27 29 -50 65 -23 36 -48 65 -54
65 -21 0 -62 52 -59 75 3 19 -36 89 -87 155 -27 37 -62 101 -67 124 -2 11 -9
23 -15 26 -6 4 -10 11 -10 16 2 16 -22 79 -32 85 -5 4 16 26 47 49 69 52 109
127 111 207 1 29 4 56 8 59 10 10 -23 88 -46 107 -64 51 -109 61 -196 41z"/>
<path d="M2766 1775 c-9 -26 -7 -32 5 -12 6 10 9 21 6 23 -2 3 -7 -2 -11 -11z"/>
<path d="M2750 1729 c0 -5 5 -7 10 -4 6 3 10 8 10 11 0 2 -4 4 -10 4 -5 0 -10
-5 -10 -11z"/>
</g>
</svg>
